<svg xmlns="http://www.w3.org/2000/svg" viewBox="0 0 1200 650"><defs><linearGradient id="g" x1="0" y1="0" x2="1" y2="1"><stop stop-color="#46515c"/><stop offset="1" stop-color="#111a21"/></linearGradient></defs><ellipse cx="600" cy="535" rx="430" ry="45" fill="#14384e22"/><path d="M205 420c32-74 86-132 157-171 82-44 171-65 277-62 112 3 210 35 300 95 52 35 89 80 111 138l-31 71H222z" fill="url(#g)"/><path d="M390 258c85-52 178-67 279-57 81 8 153 33 214 78l-493 4z" fill="#9fdde7"/><path d="M405 276l159-2 5-62c-61 5-116 26-164 64zm180-3l272-1c-71-45-159-66-264-63z" fill="#c9f2f7"/><rect x="248" y="383" width="710" height="94" rx="28" fill="#26323b"/><path d="M246 406h728l37 70H213z" fill="#202a31"/><circle cx="373" cy="474" r="82" fill="#172027"/><circle cx="373" cy="474" r="48" fill="#9aa6ae"/><circle cx="373" cy="474" r="21" fill="#2b343a"/><circle cx="846" cy="474" r="82" fill="#172027"/><circle cx="846" cy="474" r="48" fill="#9aa6ae"/><circle cx="846" cy="474" r="21" fill="#2b343a"/><path d="M212 395h81l-15 49h-75zM955 397h65l28 47h-89z" fill="#fff0b0"/><path d="M464 350h280" stroke="#64727b" stroke-width="8" stroke-linecap="round"/><path d="M725 280v90" stroke="#111820" stroke-width="7"/><text x="600" y="608" text-anchor="middle" font-family="Arial" font-size="34" font-weight="700" fill="#07879a">Dodge Journey 2013</text></svg>