<svg xmlns="http://www.w3.org/2000/svg" viewBox="0 0 500 500"><defs><linearGradient id="b" x1="0" y1="0" x2="1" y2="1"><stop stop-color="#1db5c4"/><stop offset="1" stop-color="#ed3c78"/></linearGradient></defs><rect width="500" height="500" rx="85" fill="url(#b)"/><circle cx="250" cy="188" r="96" fill="#f3c4a8"/><path d="M145 190c0-78 41-125 106-125 72 0 112 53 112 132-26-32-64-54-116-54-43 0-76 16-102 47z" fill="#3f2a23"/><path d="M99 500c7-129 62-199 151-199 94 0 145 73 152 199z" fill="#fff"/><circle cx="213" cy="188" r="8" fill="#352b2a"/><circle cx="287" cy="188" r="8" fill="#352b2a"/><path d="M216 240c25 16 46 16 70 0" fill="none" stroke="#a85158" stroke-width="8" stroke-linecap="round"/></svg>